<svg width="125" height="125" viewBox="0 0 125 125" fill="none" xmlns="http://www.w3.org/2000/svg">
<path opacity="0.5" d="M63 79.9201C62 79.9201 61.01 79.7001 60.1 79.2701C59.19 78.8401 58.39 78.2101 57.76 77.4301C57.13 76.6501 56.68 75.7401 56.44 74.7701C56.2 73.7901 56.19 72.7801 56.4 71.8001L44.57 60.5401C44.36 60.3401 44.19 60.1101 44.07 59.8401C43.95 59.5801 43.89 59.3001 43.88 59.0101C43.88 58.7201 43.93 58.4401 44.03 58.1701C44.14 57.9001 44.29 57.6601 44.49 57.4501L45.96 55.9101C46.16 55.7001 46.39 55.5301 46.66 55.4101C46.92 55.2901 47.21 55.2301 47.49 55.2201C47.78 55.2201 48.06 55.2601 48.33 55.3701C48.6 55.4801 48.84 55.6301 49.05 55.8301L60.58 66.8701C62 66.3301 63.55 66.2801 65 66.7401L85.78 43.7701C85.97 43.5501 86.2 43.3801 86.46 43.2501C86.72 43.1201 87 43.0501 87.29 43.0401C87.58 43.0301 87.87 43.0701 88.14 43.1701C88.41 43.2701 88.66 43.4201 88.87 43.6201L90.44 45.0401C90.66 45.2301 90.83 45.4601 90.96 45.7201C91.09 45.9801 91.16 46.2601 91.17 46.5501C91.18 46.8401 91.14 47.1301 91.04 47.4001C90.94 47.6701 90.79 47.9201 90.59 48.1301L69.48 71.3901C69.64 71.9601 69.72 72.5401 69.71 73.1301C69.71 74.0201 69.54 74.9001 69.21 75.7201C68.87 76.5401 68.38 77.2901 67.75 77.9201C67.12 78.5501 66.38 79.0501 65.56 79.3901C64.74 79.7301 63.86 79.9101 62.97 79.9101L63 79.9201ZM61.02 71.5501C60.98 71.7501 60.92 71.9401 60.83 72.1301C60.67 72.4501 60.59 72.8001 60.58 73.1601C60.62 73.7701 60.89 74.3501 61.34 74.7701C61.79 75.1901 62.38 75.4201 63 75.4201C63.62 75.4201 64.21 75.1901 64.65 74.7701C65.1 74.3501 65.37 73.7701 65.41 73.1601C65.41 72.7501 65.31 72.3401 65.11 71.9801C65.01 71.8001 64.93 71.6101 64.88 71.4101C64.69 71.3501 64.5 71.2601 64.33 71.1401C63.93 70.8801 63.47 70.7401 62.99 70.7401C62.46 70.7401 61.95 70.9101 61.53 71.2301C61.37 71.3601 61.19 71.4701 61 71.5501H61.02Z" fill="white"/>
<path d="M64.3 12.79C58.43 12.79 52.59 13.79 47.06 15.76C47.41 16.07 47.77 16.38 48.09 16.71C50.16 18.78 51.8 21.23 52.92 23.92C53.01 24.15 53.08 24.4 53.17 24.63C61.94 22.17 71.29 22.69 79.74 26.1C88.19 29.52 95.27 35.64 99.87 43.5C104.47 51.37 106.33 60.54 105.17 69.58C104 78.62 99.88 87.02 93.43 93.46C86.98 99.9 78.58 104.03 69.54 105.19C60.5 106.35 51.33 104.48 43.47 99.88C35.6 95.28 29.49 88.19 26.08 79.74C22.67 71.29 22.16 61.94 24.62 53.17C24.38 53.09 24.13 53.02 23.91 52.92C21.21 51.8 18.76 50.15 16.7 48.08C16.37 47.75 16.06 47.39 15.75 47.05C12.09 57.36 11.8 68.56 14.93 79.04C18.06 89.52 24.44 98.73 33.16 105.34C41.87 111.95 52.47 115.61 63.4 115.8C74.34 115.99 85.05 112.69 93.99 106.38C102.93 100.07 109.63 91.08 113.11 80.72C116.6 70.35 116.69 59.14 113.39 48.72C110.08 38.29 103.54 29.19 94.72 22.73C85.89 16.27 75.24 12.78 64.3 12.78V12.79Z" fill="white"/>
<path d="M32.39 55.63C27.02 55.62 21.82 53.75 17.67 50.33C13.52 46.92 10.68 42.17 9.64 36.9C8.59 31.63 9.41 26.16 11.94 21.42C14.47 16.68 18.56 12.97 23.52 10.91C29.22 8.58001 35.61 8.59001 41.3 10.91C44.12 12.08 46.68 13.8 48.83 15.96C52.09 19.21 54.3 23.35 55.2 27.86C56.1 32.37 55.64 37.04 53.88 41.29C52.12 45.54 49.13 49.17 45.31 51.72C41.48 54.27 36.99 55.63 32.39 55.62V55.63ZM32.42 11.23C28.23 11.21 24.12 12.44 20.63 14.76C17.14 17.08 14.41 20.39 12.8 24.26C11.19 28.13 10.77 32.4 11.59 36.51C12.41 40.62 14.44 44.4 17.41 47.35C19.37 49.33 21.7 50.89 24.27 51.96C29.46 54.08 35.28 54.09 40.48 51.96C43.71 50.64 46.56 48.54 48.78 45.85C51 43.16 52.52 39.96 53.2 36.54C53.88 33.12 53.71 29.58 52.69 26.24C51.67 22.9 49.85 19.87 47.37 17.41C45.41 15.44 43.08 13.88 40.51 12.81C37.94 11.75 35.19 11.21 32.41 11.22L32.42 11.23Z" fill="white"/>
<path opacity="0.5" d="M35.27 19.65H29.55C29.3 19.65 29.05 19.69 28.82 19.79C28.59 19.89 28.38 20.0299 28.2 20.2099C27.77 20.6499 27.5 21.22 27.46 21.84L27.37 22.65H37.47L37.38 21.84C37.32 21.23 37.06 20.6599 36.64 20.2099C36.46 20.0299 36.25 19.88 36.02 19.79C35.79 19.69 35.54 19.64 35.28 19.65H35.27ZM29.55 17.74H35.27C35.77 17.74 36.27 17.84 36.73 18.03C37.2 18.23 37.61 18.51 37.96 18.87C38.69 19.61 39.14 20.58 39.25 21.62L39.36 22.65H43.34C44.15 22.65 44.93 22.97 45.51 23.54C46.09 24.11 46.42 24.88 46.43 25.69V30.2099L18.44 30.2V25.6399C18.46 24.8399 18.78 24.07 19.35 23.51C19.92 22.94 20.68 22.62 21.48 22.61H25.46L25.58 21.58C25.68 20.54 26.13 19.58 26.86 18.83C27.21 18.47 27.63 18.18 28.09 17.99C28.56 17.8 29.05 17.7 29.56 17.7L29.54 17.74H29.55ZM21.46 43.59H43.33C44.14 43.6 44.92 43.28 45.5 42.72C46.08 42.15 46.41 41.3799 46.42 40.57V32.13H33.49V32.9399C33.5 33.0899 33.49 33.2499 33.44 33.3899C33.39 33.5399 33.31 33.6699 33.21 33.7799C33.11 33.8899 32.98 33.9799 32.84 34.0499C32.7 34.1099 32.55 34.1399 32.39 34.1399C32.23 34.1399 32.08 34.1099 31.94 34.0499C31.8 33.99 31.67 33.9 31.57 33.7799C31.47 33.6699 31.39 33.53 31.34 33.3899C31.29 33.2499 31.27 33.0899 31.29 32.9399V32.13H18.43V40.57C18.43 41.3699 18.76 42.13 19.32 42.7C19.88 43.27 20.64 43.59 21.44 43.61L21.46 43.59Z" fill="white"/>
</svg>
